# xmcd
#
# Track frame offsets:
#	150
#	26405
#	44909
#	61806
#	82796
#	100795
#	123010
#	139181
#	159571
#	169024
#	186319
#	213927
#
# Disc length: 3065 seconds
#
# Revision: 1
# Processed by: cddbd v1.5.2PL0 Copyright (c) Steve Scherf et al.
# Submitted via: audiograbber 1.83.01
#
DISCID=990bf70c
DTITLE=Stearns, Richie And Rosie Newton - Tractor Beam
DYEAR=2013
DGENRE=Bluegrass
TTITLE0=Ribbons and Bows
TTITLE1=Take It Or Leave
TTITLE2=If I Needed You
TTITLE3=I Am With You Always
TTITLE4=Shirt Tail Boogie
TTITLE5=Tractor Beam
TTITLE6=Say Darling Say
TTITLE7=Willow Garden
TTITLE8=Lost Goose
TTITLE9=Trouble In Mind
TTITLE10=Ruben's Train
TTITLE11=Hangman's Reel
EXTD=
EXTT0=
EXTT1=
EXTT2=
EXTT3=
EXTT4=
EXTT5=
EXTT6=
EXTT7=
EXTT8=
EXTT9=
EXTT10=
EXTT11=
PLAYORDER=
